<svg xmlns="http://www.w3.org/2000/svg" xmlns:xlink="http://www.w3.org/1999/xlink" version="1.1" x="0px" y="0px" viewBox="0 0 100 125" style="enable-background:new 0 0 100 100;" xml:space="preserve"><path d="M88.7402344,43.6826172C90.253418,40.8408203,90.5688477,37.5791016,89.6293945,34.5  c-0.1616211-0.5283203-0.7211914-0.828125-1.2485352-0.6640625l-22.8226318,6.9638672  c-1.8101196-2.2836914-3.6271973-4.9274902-5.545166-8.0751953l6.7950439-20.9345703  c0.1704102-0.5253906-0.1171875-1.0888672-0.6425781-1.2597656c-6.3227539-2.0488281-13.1337891,1.4208984-15.1860352,7.7431641  l-0.3324585,1.0244141C37.3427124,8.307373,11.8720093,9.9282227,10.7734375,10.0019531  C10.2495117,10.0390625,9.8427734,10.4746094,9.8427734,11v34.5302734c0,0.2773438,0.1157227,0.5429688,0.3188477,0.7324219  s0.4741211,0.2851562,0.753418,0.2646484c0.1320801-0.0073242,12.5201416-0.8381348,22.7672729,3.9985352l-8.0827026,2.4663086  c-2.9736328-1.9482422-6.6396484-2.2128906-9.9057617-0.6972656c-4.137207,1.9238281-6.5258789,6.5791016-5.6791992,11.0703125  c0.5400391,2.8652344,2.269043,5.3671875,4.7436523,6.8642578c1.6069336,0.9726562,3.4370117,1.4716797,5.2797852,1.4716797  c0.9970703,0,1.9985352-0.1464844,2.9692383-0.4433594c2.9135742-0.8876953,5.222168-2.9804688,6.4013672-5.7802734  l6.9360962-2.1164551l-2.2432251,6.911377c-2.8198242,1.1298828-4.9526367,3.4003906-5.8930664,6.2978516  c-0.8398438,2.5878906-0.6220703,5.3486328,0.6142578,7.7724609c1.2363281,2.4248047,3.3422852,4.2226562,5.9306641,5.0625  c1.0410156,0.3378906,2.0981445,0.4990234,3.1376953,0.4980469c4.2963867,0,8.3012695-2.7412109,9.6972656-7.0429688  c0.9404297-2.8974609,0.5473633-5.9892578-1.0722656-8.5605469l1.9781494-6.157959  c9.1875,14.9998779,26.6760864,21.7634277,40.3485107,21.7634277c0.5522461,0,1-0.4472656,1-1V54.375c0-0.5527344-0.4477539-1-1-1  c-4.197998,0-7.9731445-0.8389893-11.4794312-2.5306396l4.2553101-1.2984619  C84.6977539,48.6064453,87.2270508,46.5244141,88.7402344,43.6826172z M63.515686,41.4229736l-7.0213623,2.1424561  l2.7126465-8.3574219C60.6760864,37.5372314,62.1002808,39.5908203,63.515686,41.4229736z M64.5820312,12.1708984  L54.1604614,44.2774658l-10.5651855,3.2237549l9.2865601-28.6105957  C54.4892578,13.9394531,59.6005859,11.0830078,64.5820312,12.1708984z M11.8427734,44.4814453V11.9521484  c4.8125-0.1850586,26.9998169-0.4694824,38.1387939,9.395752l-8.7200928,26.8654785l-4.8308716,1.473999  C27.0018921,44.4509277,15.40271,44.3625488,11.8427734,44.4814453z M44.597168,75.0244141  c1.4892578,2.1318359,1.8862305,4.7626953,1.0888672,7.21875c-1.3935547,4.2939453-6.019043,6.6552734-10.3154297,5.2597656  c-2.0800781-0.6748047-3.7724609-2.1201172-4.7661133-4.0683594s-1.1689453-4.1669922-0.4936523-6.2470703  c0.7973633-2.4560547,2.6635742-4.3525391,5.1201172-5.2021484c0.2963867-0.1025391,0.5273438-0.3388672,0.6240234-0.6367188  l2.8236084-8.699707l10.5097656-3.2070312l-4.7235107,14.7045898C44.3691406,74.4433594,44.418457,74.7685547,44.597168,75.0244141z   M87.8427734,55.3603516v32.5322266c-13.4018555-0.3291016-30.2421875-7.25-38.5375977-22.2617188  c-0.0007935-0.0014648-0.0023193-0.0021973-0.0031128-0.0036621l2.215271-6.8959961l23.1338501-7.0592041  C78.6714478,53.9975586,82.9985962,55.2155762,87.8427734,55.3603516z M28.3632812,63.7060547  c-0.2998047,0.0908203-0.5395508,0.3183594-0.6469727,0.6123047c-0.8935547,2.4414062-2.8227539,4.2734375-5.2924805,5.0273438  c-2.2231445,0.6787109-4.6391602,0.3769531-6.6298828-0.8271484c-2.0180664-1.2207031-3.3725586-3.1826172-3.8134766-5.5244141  c-0.6801758-3.6044922,1.2363281-7.3417969,4.5566406-8.8847656c1.1323242-0.5273438,2.3242188-0.7871094,3.5058594-0.7871094  c1.6904297,0,3.3588867,0.5322266,4.7998047,1.5771484c0.2529297,0.1835938,0.5786133,0.2392578,0.8789062,0.1464844  l62.2397461-18.9912109c0.4570312,2.2734375,0.1171875,4.6142578-0.9868164,6.6875  c-1.2617188,2.3710938-3.3710938,4.1074219-5.9399414,4.8916016L28.3632812,63.7060547z"/><path d="M18.4609375,56.6132812c-2.7402344,0.8359375-4.2895508,3.7460938-3.4536133,6.4873047  c0.6826172,2.2363281,2.7470703,3.6796875,4.9741211,3.6796875c0.5004883,0,1.0097656-0.0732422,1.5131836-0.2265625  c2.7407227-0.8369141,4.2895508-3.7470703,3.453125-6.4873047C24.1118164,57.3271484,21.2036133,55.7763672,18.4609375,56.6132812z   M20.9111328,64.6416016c-1.6865234,0.5107422-3.4770508-0.4394531-3.9907227-2.125  c-0.5141602-1.6855469,0.4384766-3.4765625,2.1240234-3.9912109c0.3095703-0.09375,0.6225586-0.1386719,0.9311523-0.1386719  c1.3691406,0,2.6396484,0.8876953,3.059082,2.2636719C23.5493164,62.3359375,22.5966797,64.1259766,20.9111328,64.6416016z"/><path d="M40.2963867,75.1923828c-1.2255859-0.6533203-2.6318359-0.7900391-3.9589844-0.3828125  c-2.7402344,0.8359375-4.2895508,3.7460938-3.4536133,6.4863281c0.4052734,1.3271484,1.3027344,2.4179688,2.5283203,3.0703125  c0.7626953,0.40625,1.5952148,0.6123047,2.4355469,0.6123047c0.5092773,0,1.0219727-0.0761719,1.5229492-0.2294922  c1.3276367-0.4042969,2.4179688-1.3017578,3.0703125-2.5273438s0.7885742-2.6308594,0.3833008-3.9589844  C42.4189453,76.9355469,41.5214844,75.8447266,40.2963867,75.1923828z M40.6757812,81.2822266  c-0.4013672,0.7529297-1.0717773,1.3056641-1.8886719,1.5546875c-0.8178711,0.2480469-1.6816406,0.1640625-2.4350586-0.2363281  c-0.7539062-0.4013672-1.3061523-1.0722656-1.5551758-1.8886719c-0.5141602-1.6855469,0.4389648-3.4755859,2.1245117-3.9902344  c0.3081055-0.09375,0.6235352-0.140625,0.9370117-0.140625c0.5166016,0,1.0288086,0.1269531,1.4980469,0.3769531  c0.753418,0.4013672,1.3056641,1.0712891,1.5546875,1.8886719C41.1606445,79.6630859,41.0766602,80.5283203,40.6757812,81.2822266z"/><text x="0" y="115" fill="#000000" font-size="5px" font-weight="bold" font-family="'Helvetica Neue', Helvetica, Arial-Unicode, Arial, Sans-serif">Created by Made</text><text x="0" y="120" fill="#000000" font-size="5px" font-weight="bold" font-family="'Helvetica Neue', Helvetica, Arial-Unicode, Arial, Sans-serif">from the Noun Project</text></svg>